<svg xmlns="http://www.w3.org/2000/svg" xmlns:xlink="http://www.w3.org/1999/xlink" width="23.695" height="23.671" viewBox="0 0 23.695 23.671">
  <defs>
    <clipPath id="clip-path">
      <rect id="Rectangle_159" data-name="Rectangle 159" width="23.695" height="23.671" fill="#9ac9ff"/>
    </clipPath>
  </defs>
  <g id="ins" clip-path="url(#clip-path)">
    <path id="Path_35" data-name="Path 35" d="M12.637,6.474a6.077,6.077,0,1,0,6.015,6.086,6.059,6.059,0,0,0-6.015-6.086m-.056,10.018a3.943,3.943,0,1,1,3.937-3.949,3.963,3.963,0,0,1-3.937,3.949" transform="translate(-0.716 -0.714)" fill="#9ac9ff"/>
    <path id="Path_36" data-name="Path 36" d="M20.261,4.608a1.424,1.424,0,0,0-1.442,1.416,1.445,1.445,0,0,0,1.433,1.435A1.425,1.425,0,0,0,21.67,6.044a1.4,1.4,0,0,0-1.409-1.436" transform="translate(-2.074 -0.508)" fill="#9ac9ff"/>
    <path id="Path_37" data-name="Path 37" d="M23.406,5.254A5.947,5.947,0,0,0,19.274.494,11.458,11.458,0,0,0,15.589.025c-2.351-.026-4.7-.039-7.053,0A21.3,21.3,0,0,0,5.29.285,5.893,5.893,0,0,0,1.113,3.117,7.717,7.717,0,0,0,.089,7.03c-.046,1.6-.061,3.2-.089,4.8H.033c0,1.107-.034,2.214.01,3.319a21.892,21.892,0,0,0,.27,3.272,5.944,5.944,0,0,0,4.132,4.761,11.474,11.474,0,0,0,3.684.469c2.342.025,4.685.039,7.027,0a19.219,19.219,0,0,0,3.272-.266,5.948,5.948,0,0,0,4.778-4.146,11.474,11.474,0,0,0,.464-3.659c.026-2.351.039-4.7,0-7.053a18.938,18.938,0,0,0-.268-3.272M21.447,17.06a4.387,4.387,0,0,1-1.588,3.414,4.311,4.311,0,0,1-2.311.9c-.909.09-1.826.14-2.741.15-1.962.021-3.925.033-5.886,0a19.169,19.169,0,0,1-3.247-.25,3.939,3.939,0,0,1-3.348-3.761c-.118-1.358-.149-2.725-.155-4.09-.007-2.143.024-4.286.076-6.429A6.962,6.962,0,0,1,2.5,5.3,3.863,3.863,0,0,1,5.852,2.36,22.171,22.171,0,0,1,8.9,2.153c1.971-.031,3.943-.036,5.913,0a19.448,19.448,0,0,1,3.222.246A3.976,3.976,0,0,1,21.4,6.154c.091.892.125,1.792.149,2.69.025.933.005,1.867.005,2.8l.048,0c-.048,1.8-.066,3.611-.153,5.414" transform="translate(0 0)" fill="#9ac9ff"/>
  </g>
</svg>
