<svg id="linkdin" xmlns="http://www.w3.org/2000/svg" xmlns:xlink="http://www.w3.org/1999/xlink" width="23.937" height="23.112" viewBox="0 0 23.937 23.112">
  <defs>
    <clipPath id="clip-path">
      <rect id="Rectangle_158" data-name="Rectangle 158" width="23.937" height="23.112" fill="#9ac9ff"/>
    </clipPath>
  </defs>
  <rect id="Rectangle_157" data-name="Rectangle 157" width="5.508" height="15.959" transform="translate(0 7.153)" fill="#9ac9ff"/>
  <g id="Group_534" data-name="Group 534" transform="translate(0 0)">
    <g id="Group_533" data-name="Group 533" clip-path="url(#clip-path)">
      <path id="Path_33" data-name="Path 33" d="M19.9,7.959A8.572,8.572,0,0,0,14.7,9.7V8.163H9.246V24.017H14.7V13.62a2.164,2.164,0,0,1,2.367-1.751c2.575,0,2.523,1.905,2.523,1.905V24.017h5.456V13.106A4.964,4.964,0,0,0,19.9,7.959" transform="translate(-1.113 -0.959)" fill="#9ac9ff"/>
      <path id="Path_34" data-name="Path 34" d="M2.729,5.455A2.728,2.728,0,1,0,0,2.728,2.728,2.728,0,0,0,2.729,5.455" transform="translate(0 0)" fill="#9ac9ff"/>
    </g>
  </g>
</svg>
