<svg xmlns="http://www.w3.org/2000/svg" xmlns:xlink="http://www.w3.org/1999/xlink" width="32.928" height="23.187" viewBox="0 0 32.928 23.187">
  <defs>
    <clipPath id="clip-path">
      <rect id="Rectangle_156" data-name="Rectangle 156" width="32.928" height="23.187" fill="#fff"/>
    </clipPath>
  </defs>
  <g id="white-you" transform="translate(0 0)">
    <g id="Group_531" data-name="Group 531" transform="translate(0 0)" clip-path="url(#clip-path)">
      <path id="Path_32" data-name="Path 32" d="M32.928,10.889V12.3a.936.936,0,0,0-.033.152c-.036.931-.057,1.864-.11,2.795a23.625,23.625,0,0,1-.5,4.056,3.986,3.986,0,0,1-3.213,3.238,18.04,18.04,0,0,1-2.771.345q-3.28.181-6.565.27c-1.44.042-2.881.035-4.322.018q-2.9-.035-5.8-.123A44.444,44.444,0,0,1,4.2,22.629,4.14,4.14,0,0,1,1,20.41a6.2,6.2,0,0,1-.568-2.025A43.04,43.04,0,0,1,0,12.039C-.008,10.622.056,9.2.129,7.789a21.691,21.691,0,0,1,.49-3.921A4.015,4.015,0,0,1,3.825.646a13.407,13.407,0,0,1,2.2-.3C8.413.22,10.8.11,13.185.034,14.632-.013,16.081,0,17.53.015c1.925.023,3.852.043,5.775.13,1.7.077,3.4.207,5.1.378A4.171,4.171,0,0,1,32.34,4.13a36.527,36.527,0,0,1,.537,5.653c.015.368.034.737.051,1.107M13.085,16.506l8.632-4.911L13.085,6.684Z" transform="translate(0 0)" fill="#fff"/>
    </g>
  </g>
</svg>
