<svg xmlns="http://www.w3.org/2000/svg" xmlns:xlink="http://www.w3.org/1999/xlink" width="24.982" height="24.957" viewBox="0 0 24.982 24.957">
  <defs>
    <clipPath id="clip-path">
      <rect id="Rectangle_159" data-name="Rectangle 159" width="24.982" height="24.957" fill="#fff"/>
    </clipPath>
  </defs>
  <g id="white-ins" transform="translate(0 0)">
    <g id="Group_536" data-name="Group 536" transform="translate(0 0)" clip-path="url(#clip-path)">
      <path id="Path_35" data-name="Path 35" d="M12.97,6.474a6.407,6.407,0,1,0,6.342,6.417A6.388,6.388,0,0,0,12.97,6.474m-.059,10.562a4.157,4.157,0,1,1,4.151-4.163,4.178,4.178,0,0,1-4.151,4.163" transform="translate(-0.402 -0.401)" fill="#fff"/>
      <path id="Path_36" data-name="Path 36" d="M20.34,4.608A1.5,1.5,0,0,0,18.819,6.1,1.524,1.524,0,0,0,20.33,7.614a1.5,1.5,0,0,0,1.494-1.492A1.471,1.471,0,0,0,20.34,4.608" transform="translate(-1.164 -0.285)" fill="#fff"/>
      <path id="Path_37" data-name="Path 37" d="M24.678,5.54A6.27,6.27,0,0,0,20.321.521,12.08,12.08,0,0,0,16.436.026C13.958,0,11.479-.015,9,.022A22.454,22.454,0,0,0,5.577.3a6.213,6.213,0,0,0-4.4,2.986A8.137,8.137,0,0,0,.094,7.412C.045,9.1.03,10.782,0,12.468H.035c0,1.167-.036,2.334.01,3.5a23.082,23.082,0,0,0,.285,3.45,6.267,6.267,0,0,0,4.357,5.02,12.1,12.1,0,0,0,3.884.494c2.469.026,4.939.041,7.408,0a20.263,20.263,0,0,0,3.45-.281,6.271,6.271,0,0,0,5.038-4.372,12.1,12.1,0,0,0,.49-3.858c.027-2.479.041-4.958,0-7.436a19.966,19.966,0,0,0-.282-3.45M22.612,17.987a4.625,4.625,0,0,1-1.675,3.6,4.545,4.545,0,0,1-2.436.947c-.959.095-1.925.147-2.889.159-2.069.023-4.138.035-6.206,0a20.21,20.21,0,0,1-3.423-.264,4.153,4.153,0,0,1-3.53-3.965c-.125-1.432-.158-2.873-.163-4.312-.008-2.259.025-4.519.08-6.778a7.34,7.34,0,0,1,.266-1.776,4.073,4.073,0,0,1,3.535-3.1A23.375,23.375,0,0,1,9.381,2.27c2.078-.033,4.157-.038,6.234,0a20.5,20.5,0,0,1,3.4.26A4.192,4.192,0,0,1,22.56,6.488c.1.941.131,1.889.157,2.836.026.983.006,1.968.006,2.952l.051,0c-.051,1.9-.069,3.807-.161,5.709" transform="translate(0 0)" fill="#fff"/>
    </g>
  </g>
</svg>
