<svg xmlns="http://www.w3.org/2000/svg" xmlns:xlink="http://www.w3.org/1999/xlink" width="25.237" height="24.367" viewBox="0 0 25.237 24.367">
  <defs>
    <clipPath id="clip-path">
      <rect id="Rectangle_158" data-name="Rectangle 158" width="25.237" height="24.367" fill="#fff"/>
    </clipPath>
  </defs>
  <g id="white-link" transform="translate(0 -0.001)">
    <rect id="Rectangle_157" data-name="Rectangle 157" width="5.807" height="16.826" transform="translate(0 7.542)" fill="#fff"/>
    <g id="Group_534" data-name="Group 534" transform="translate(0 0)">
      <g id="Group_533" data-name="Group 533" clip-path="url(#clip-path)">
        <path id="Path_33" data-name="Path 33" d="M20.481,7.959A9.038,9.038,0,0,0,15,9.792V8.174H9.246V24.889H15V13.928a2.281,2.281,0,0,1,2.5-1.846c2.714,0,2.66,2.009,2.66,2.009v10.8h5.753v-11.5a5.233,5.233,0,0,0-5.426-5.426" transform="translate(-0.671 -0.578)" fill="#fff"/>
        <path id="Path_34" data-name="Path 34" d="M2.877,5.752A2.876,2.876,0,1,0,0,2.876,2.876,2.876,0,0,0,2.877,5.752" transform="translate(0 0)" fill="#fff"/>
      </g>
    </g>
  </g>
</svg>
