<svg id="youtube" xmlns="http://www.w3.org/2000/svg" xmlns:xlink="http://www.w3.org/1999/xlink" width="31.231" height="21.992" viewBox="0 0 31.231 21.992">
  <defs>
    <clipPath id="clip-path">
      <rect id="Rectangle_156" data-name="Rectangle 156" width="31.231" height="21.992" fill="#9ac9ff"/>
    </clipPath>
  </defs>
  <g id="Group_531" data-name="Group 531" transform="translate(0 0)" clip-path="url(#clip-path)">
    <path id="Path_32" data-name="Path 32" d="M31.231,10.328v1.338a.888.888,0,0,0-.031.144c-.034.883-.054,1.768-.1,2.651a22.408,22.408,0,0,1-.473,3.847,3.781,3.781,0,0,1-3.048,3.072,17.111,17.111,0,0,1-2.629.327q-3.111.172-6.227.256c-1.365.04-2.733.033-4.1.017q-2.75-.033-5.5-.117a42.154,42.154,0,0,1-5.136-.4,3.927,3.927,0,0,1-3.032-2.1,5.878,5.878,0,0,1-.539-1.921A40.823,40.823,0,0,1,0,11.418c-.008-1.344.052-2.689.121-4.031A20.574,20.574,0,0,1,.587,3.669,3.809,3.809,0,0,1,3.628.613,12.716,12.716,0,0,1,5.719.33C7.98.208,10.242.1,12.505.032,13.878-.013,15.253,0,16.627.015,18.453.036,20.28.055,22.1.138c1.615.073,3.229.2,4.837.359a3.956,3.956,0,0,1,3.732,3.421,34.645,34.645,0,0,1,.51,5.362c.015.349.032.7.048,1.05M12.411,15.655,20.6,11,12.411,6.339Z" transform="translate(0 0)" fill="#9ac9ff"/>
  </g>
</svg>
